<svg xmlns="http://www.w3.org/2000/svg" enable-background="new 0 0 7100 5000" viewBox="688.044 653.403 5723.91 3693.194"><path fill="#b0bfe2" d="M4182.606,1402.289h-543.147c-20.535,0-37.181-11.07-37.181-24.726l0,0     c0-13.655,16.646-24.725,37.18-24.725c181.05,19.305,362.099,19.305,543.148,0c20.534,0,37.181,11.069,37.181,24.725l0,0     C4219.787,1391.219,4203.141,1402.289,4182.606,1402.289z"/><path fill="#fff" d="M4233.63,1370.698h-543.148c-20.534,0-37.181-11.07-37.181-24.726l0,0     c0-13.655,16.646-24.725,37.181-24.725c181.05,19.305,362.099,19.305,543.148,0c20.534,0,37.181,11.069,37.181,24.725l0,0     C4270.811,1359.628,4254.164,1370.698,4233.63,1370.698z"/><path fill="#b54f4f" d="M4200.01,1339.692h-543.148c-20.534,0-37.18-11.07-37.18-24.725v0     c0-13.655,16.646-24.725,37.18-24.725c181.05,19.305,362.099,19.305,543.148,0c20.534,0,37.18,11.069,37.18,24.725v0     C4237.189,1328.623,4220.544,1339.692,4200.01,1339.692z"/><path fill="#d5ed8f" d="M4213.108,1314.967H3669.96c-20.534,0-37.181-11.07-37.181-24.725l0,0     c0-13.655,16.646-24.725,37.181-24.725c181.05,19.305,362.099,19.305,543.148,0c20.534,0,37.181,11.069,37.181,24.725l0,0     C4250.289,1303.897,4233.643,1314.967,4213.108,1314.967z"/><path fill="#e0d9d4" d="M3812.004,1187.037c462.499-26.987,706.871,157.379,565.666,161.637     C3980.834,1393.206,3619.594,1219.046,3812.004,1187.037z"/><path fill="#e0d9d4" d="M3929.627,1184.341l74.953-100.643c131.639-16.415,187.832,23.894,245.709,49.618l17.06,126.991     c1.87,13.924-8.546,26.517-22.577,27.22c-141.053,7.064-255.81-12.842-312.521-69.305     C3923.143,1209.154,3922.09,1194.752,3929.627,1184.341z"/><path fill="#fff" d="M3911.033,1196.114l30.501-39.45c90.317,67.083,200.083,91.454,326.032,66.004l11.522,63.409     C4137.883,1291.602,3995.189,1294.12,3911.033,1196.114z"/><path fill="#eee8e5" d="M4250.262,1133.458c-3.682,18.803-55.09,11.001-123.047-2.302     c-67.957-13.304-126.728-27.07-123.047-45.874c3.682-18.803,57.038-18.544,124.994-5.241     C4197.119,1093.344,4253.942,1114.654,4250.262,1133.458z"/><polygon fill="#fff" points="4228.41 1270.127 4261.208 1341.808 4279.089 1317.083 4332.793 1323.948 4275.573 1266.729"/><g><ellipse cx="3756.679" cy="4113.529" fill="#e0d9d4" rx="2395.098" ry="65.195"/></g><g><path fill="#eee8e5" d="M3782.521,3960.504h-43.826V1603.378c0-85.912-67.648-155.808-150.801-155.808v-45.281      c107.318,0,194.627,90.208,194.627,201.089V3960.504z"/><rect width="529.928" height="2299.659" x="3428.955" y="1402.289" fill="#eee8e5"/><rect width="490.015" height="2205.205" x="3468.868" y="1451.455" fill="#e0d9d4"/><rect width="375.903" height="2299.659" x="3889.571" y="1402.289" fill="#eee8e5"/><rect width="531.041" height="478.327" x="3428.955" y="3223.621" fill="#eee8e5"/><rect width="491.128" height="17.555" x="3468.868" y="3461.959" fill="#e0d9d4"/><rect width="491.128" height="38.359" x="3468.868" y="2616.51" fill="#eee8e5"/><rect width="491.128" height="38.359" x="3468.868" y="3223.621" fill="#eee8e5"/><rect width="491.128" height="38.359" x="3468.868" y="2009.399" fill="#eee8e5"/><rect width="491.128" height="38.359" x="3468.312" y="1402.289" fill="#eee8e5"/><circle cx="3661.718" cy="3340.418" r="26.079" fill="#e0d9d4"/><circle cx="3661.718" cy="3575.859" r="26.079" fill="#e0d9d4"/><path fill="#eee8e5" d="M4892.35,3960.504h-43.826V1596.916c0-83.151-67.648-150.801-150.801-150.801h-512.506v-43.826      h512.506c107.318,0,194.627,87.309,194.627,194.627V3960.504z"/><rect width="1153.654" height="41.483" x="3738.695" y="3846.016" fill="#eee8e5"/><path fill="#eee8e5" d="M5167.058,4103.488L5167.058,4103.488c-12.103,0-21.913-9.811-21.913-21.913v-1.083      c0-54.166-43.91-98.075-98.075-98.075h-388.299c-54.165,0-98.074,43.909-98.074,98.074v1.084      c0,12.103-9.812,21.913-21.913,21.913l0,0c-12.103,0-21.913-9.811-21.913-21.913v-1.083c0-78.37,63.531-141.901,141.901-141.901      h388.299c78.369,0,141.9,63.531,141.9,141.9v1.084C5188.971,4093.678,5179.16,4103.488,5167.058,4103.488z"/><path fill="#eee8e5" d="M4096.658,4103.488L4096.658,4103.488c-12.102,0-21.912-9.811-21.912-21.913v-1.083      c0-54.166-43.91-98.075-98.076-98.075h-388.299c-54.165,0-98.074,43.909-98.074,98.074v1.084      c0,12.103-9.811,21.913-21.913,21.913l0,0c-12.102,0-21.913-9.811-21.913-21.913v-1.083c0-78.37,63.532-141.901,141.902-141.901      h388.298c78.37,0,141.9,63.531,141.9,141.9v1.084C4118.571,4093.678,4108.761,4103.488,4096.658,4103.488z"/><g><path fill="#bc94b7" d="M4106.414,1717.515l6.303-138.193l43.554,69.113l43.787,152.884l-5.759,100.315l-105.878,16.213       l-126.448-160.861l4.293-190.029l69.295,120.411C4052.328,1716.503,4102.204,1750.867,4106.414,1717.515z"/><polygon fill="#d1aacc" points="3892.016 3056.285 4016.36 3063.863 4093.924 3068.368 4196.438 3021.096 4269.507 3021.974 4359.341 3021.974 4212.146 2961.988 4036.832 3000.062 3879.189 3014.557 3714.322 3080.203"/><path fill="#bc94b7" d="M3875.637,1630.496l32.351-39.561c15.374,82.175,12.892,158.716-49.2,216.46l-11.809-44.615       C3834.765,1716.641,3845.423,1667.443,3875.637,1630.496z"/><path fill="#3d3d3d" d="M4250.219,1699.082h-432.032c-4.861,0-9.144-3.191-10.531-7.848       c-1.387-4.657,0.447-9.672,4.515-12.333l208.818-136.629c3.555-2.318,8.133-2.39,11.754-0.179l223.215,136.629       c4.195,2.567,6.173,7.611,4.838,12.354C4259.461,1695.811,4255.141,1699.082,4250.219,1699.082z M3855.049,1677.104h356.172       l-184.02-112.635L3855.049,1677.104z"/><path fill="#ddb2d6" d="M3907.987,1590.935l58.278-23.979c26.766,133.155,67.179,252.737,182.424,297.889       c26.426-50.029,3.573-157.969-35.973-285.524c0,0,61.682,32.187,86.234,80.499l79.402,156.242       c8.783,17.282,9.108,37.649,0.883,55.203l-66.839,142.645l53.736,315.213l93.207,692.851l-176.882-34.412l-107.243,34.412       h-135.842l-225.052,58.229l94.053-735.354l99.612-270.047l-49.2-267.407       C3914.941,1748.528,3926.056,1674.608,3907.987,1590.935z"/><polygon fill="#d1aacc" points="3939.374 3021.974 3982.868 2589.574 4075.216 3021.974"/><path fill="#d1aacc" d="M3836.326,3048.636c0,0,19.731-262.594,0-242.861c-19.732,19.732-85.823,265.067-85.823,265.067       L3836.326,3048.636z"/><polygon fill="#d1aacc" points="3879.189 2713.837 3925.583 2859.923 3959.686 2346.838"/><path fill="#bc94b7" d="M4182.459,2987.562l-39.771-334.955c-0.576-4.851,6.415-6.254,7.757-1.557l99.774,349.694       L4182.459,2987.562z"/><path fill="#bc94b7" d="M4199.597,1905.154l-53.221,93.139c-0.317,0.557-0.46,1.198-0.409,1.839l10.18,125.879       c0.306,3.779-5.061,4.839-6.215,1.226l-37.296-116.758c-0.317-0.994-0.128-2.081,0.507-2.908l81.156-105.937       C4196.716,1898.479,4201.568,1901.704,4199.597,1905.154z"/><polygon fill="#bc94b7" points="3936.544 1900.349 4018.455 1935.583 4136.844 1900.349 4045.416 1991.776 3942.427 2129.461 3982.868 2014.904"/><polygon fill="#bc94b7" points="4088.421 2184.461 4088.421 2754.321 4136.844 2514.538"/><path fill="#3d3d3d" d="M4025.569,1555.126c-0.034,0-0.067,0-0.1,0c-2.021-0.058-3.616-1.739-3.566-3.756l1.22-46.457       c-28.934-1.931-51.879-26.089-51.879-55.506c0-30.674,24.955-55.633,55.634-55.633c50.646,0,55.636,49.826,55.636,80.5       c0,2.025-1.639,3.664-3.662,3.664c-2.025,0-3.664-1.639-3.664-3.664c0-26.639-21.672-73.176-48.31-73.176       c-26.637,0-48.308,21.67-48.308,48.309c0,26.641,21.671,48.31,48.308,48.31c0.988,0,1.937,0.401,2.626,1.109       c0.687,0.708,1.063,1.659,1.037,2.647l-1.312,50.083C4029.175,1553.544,4027.547,1555.126,4025.569,1555.126z"/><g><path fill="#2c395a" d="M4101.221,1599.19c63.326,41.685,150.639,57.403,214.188,15.714l29.228,56.226l-57.736,88.2       l-264.904-33.134L4101.221,1599.19z"/><path fill="#3d3d3d" d="M3975.046,1709.031c-4.64,0-8.807-2.926-10.359-7.34c-1.616-4.578-0.028-9.679,3.903-12.541       l201.857-146.708c3.44-2.489,8.009-2.791,11.729-0.751l229.653,125.497c4.316,2.362,6.542,7.305,5.439,12.098       c-1.098,4.8-5.253,8.277-10.168,8.52l-431.511,21.211C3975.406,1709.024,3975.225,1709.031,3975.046,1709.031z        M4177.74,1564.31l-166.411,120.949l355.738-17.484L4177.74,1564.31z"/><polygon fill="#a8b9d5" points="4089.396 3198.036 4204.988 3200.546 4277.081 3201.871 4369.541 3146.235 4437.277 3143.855 4437.277 3143.855 4380.961 3081.793 4220.572 3130.823 4075.306 3153.631 3959.075 3220.176"/><path fill="#b0bfe2" d="M4170.906,1672.596l-104.126-57.477l-15.339,10.587       c23.914,89.254,14.848,160.084-42.577,226.528l35.92,287.239l-24.681,310.035l-61.028,770.667l201.046-62.698l146.459-7.198       l74.381-44.934l56.316,38.51l-23.27-770.89c0,0,0.604-632.706-7.445-696.133c-2.285-17.999-29.824-30.335-45.514-39.446       l-45.64-22.482l5.037,19.566c9.266,35.994-43.554,52.657-80.573,55.97C4216.872,1692.499,4193.034,1686.528,4170.906,1672.596z       "/><polygon fill="#a8b9d5" points="4160.121 3157.478 4184.824 2703.754 4306.58 3150.279"/><path fill="#a8b9d5" d="M4050.432,3191.687c-1.108,42.766,10.401-287.524-12.872-261.845       c-20.229,22.32-78.484,290.334-78.484,290.334L4050.432,3191.687z"/><polygon fill="#a8b9d5" points="4078.901 2828.445 4137.39 2998.27 4146.965 2443.273"/><path fill="#3d3d3d" d="M4175.473,1555.068c-1.985,0-3.617-1.589-3.662-3.578l-1.066-46.457       c-28.994-0.515-53.095-23.515-54.541-52.894c-1.505-30.64,22.162-58.297,52.839-58.297c42.179,0,56.789,47.066,58.296,77.698       c0.1,2.018-1.46,3.735-3.48,3.834c-2.068,0.164-3.742-1.459-3.839-3.477c-1.305-26.598-23.973-71.967-50.62-70.745       c-26.604,1.31-47.186,24.023-45.876,50.627c1.306,26.598,23.857,47.144,50.62,45.876c0.997-0.1,1.949,0.301,2.675,0.974       c0.723,0.672,1.142,1.609,1.166,2.597l1.152,50.089c0.046,2.025-1.557,3.698-3.577,3.75       C4175.53,1555.068,4175.5,1555.068,4175.473,1555.068z"/><path fill="#2c395a" d="M4051.695,1791.951l-85.746,68.276c-20.377,18.69,30.273,5.928,30.362,33.579l41.023,186.091       l29.304-146.907C4090.327,1843.019,4090.327,1843.019,4051.695,1791.951z"/><path fill="#b0bfe2" d="M4051.441,1625.706l-85.748,60.95c-20.377,18.69-31.938,52.424-31.848,80.075l-26.582,688.325       l75.227-3.697l52.579-514.628l31.313-169.987C4098.146,1717.58,4090.072,1676.771,4051.441,1625.706z"/></g><g><rect width="73.064" height="43.826" x="4026.879" y="1402.289" fill="#eee8e5"/></g><g><rect width="73.065" height="43.826" x="4174.688" y="1402.289" fill="#eee8e5"/></g><g><path fill="#e0d9d4" d="M4169.355,1594.553c63.326,41.686,155.275,62.04,218.825,20.351l29.228,56.226l-57.736,88.2       l-204.638-16.8L4169.355,1594.553z"/><path fill="#3d3d3d" d="M4047.817,1709.031c-4.64,0-8.807-2.926-10.359-7.34c-1.616-4.578-0.028-9.679,3.903-12.541       l201.857-146.708c3.44-2.489,8.009-2.791,11.729-0.751l229.653,125.497c4.316,2.362,6.542,7.305,5.439,12.098       c-1.098,4.8-5.254,8.277-10.168,8.52l-431.511,21.211C4048.178,1709.024,4047.997,1709.031,4047.817,1709.031z        M4250.512,1564.31l-166.411,120.949l355.738-17.484L4250.512,1564.31z"/><path fill="#e0d9d4" d="M4388.181,1614.904l99.952,54.022c18.675,10.845,31.059,29.945,33.34,51.42l30.012,332.38       l-111.646,27.172l-1.482-179.943L4388.181,1614.904z"/><polygon fill="#e0d9d4" points="4162.168 2516.443 4277.761 2518.953 4349.853 2520.277 4442.313 2464.643 4510.049 2462.262 4510.049 2462.262 4453.732 2400.199 4293.344 2449.23 4148.077 2472.038 4069.124 2526.957"/><path fill="#fff" d="M4243.678,1672.596l-104.126-57.477l-15.339,10.587       c23.914,89.254,14.848,160.084-42.577,226.528l35.92,287.239l-48.432,387.483l163.769-51.072l146.459-7.199l74.381-44.933       l56.316,38.509c0,0-22.665-722.002-30.715-785.43c-2.285-17.999-29.824-30.335-45.514-39.446l-45.64-22.482l5.037,19.566       c9.266,35.994-43.554,52.657-80.573,55.97C4289.644,1692.499,4265.807,1686.528,4243.678,1672.596z"/><path fill="#3d3d3d" d="M4248.244,1555.068c-1.985,0-3.617-1.589-3.662-3.578l-1.066-46.457       c-28.994-0.515-53.095-23.515-54.541-52.894c-1.505-30.64,22.162-58.297,52.839-58.297c47.772,0,56.789,47.066,58.296,77.698       c0.1,2.018-1.46,3.735-3.48,3.834c-2.068,0.164-3.742-1.459-3.839-3.477c-1.305-26.598-23.973-71.967-50.62-70.745       c-26.604,1.31-47.185,24.023-45.876,50.627c1.306,26.598,23.857,47.144,50.62,45.876c0.997-0.1,1.949,0.301,2.675,0.974       c0.723,0.672,1.142,1.609,1.166,2.597l1.152,50.089c0.046,2.025-1.557,3.698-3.577,3.75       C4248.302,1555.068,4248.271,1555.068,4248.244,1555.068z"/><path fill="#e0d9d4" d="M4124.467,1791.951l-85.746,68.276c-20.377,18.69,30.273,5.928,30.362,33.579l41.023,186.091       l29.304-146.907C4163.099,1843.019,4163.099,1843.019,4124.467,1791.951z"/><path fill="#fff" d="M4124.213,1625.706l-85.748,60.95c-20.377,18.69-31.938,52.424-31.848,80.075l-27.151,339.657       l97.764,23.073l30.611-192.73l31.313-169.987C4170.917,1717.58,4162.844,1676.771,4124.213,1625.706z"/></g><g><path fill="#c9c2be" d="M4363.193,1594.553c71.919,47.341,176.342,70.457,248.515,23.112l33.192,63.854l25.474,435.826       l-323.444-354.739L4363.193,1594.553z"/><path fill="#3d3d3d" d="M4256.283,1709.031c-4.64,0-8.807-2.926-10.359-7.34c-1.617-4.578-0.028-9.679,3.903-12.541       l201.857-146.708c3.44-2.489,8.009-2.791,11.729-0.751l229.653,125.497c4.316,2.362,6.542,7.305,5.439,12.098       c-1.098,4.8-5.254,8.277-10.168,8.52l-431.512,21.211C4256.644,1709.024,4256.462,1709.031,4256.283,1709.031z        M4458.979,1564.31l-166.412,120.949l355.738-17.484L4458.979,1564.31z"/><path fill="#e0d9d4" d="M4611.708,1617.665l113.512,61.351c21.209,12.316,35.273,34.007,37.863,58.396l42.866,758.258       h-164.908l27.649-554.282L4611.708,1617.665z"/><path fill="#eee8e5" d="M4447.6,1683.185l-118.253-65.275l-17.421,12.023c27.159,101.363,16.863,181.803-48.353,257.262       l40.794,326.209l-13.063,164.709l436.4,32.567c0,0-3.335-650.651-12.478-722.685c-2.594-20.44-33.869-34.451-51.688-44.798       l-51.831-25.532l5.72,22.22c10.523,40.878,36.321,338.591-5.72,342.354C4585.586,1984.577,4472.729,1699.007,4447.6,1683.185z"/><path fill="#3d3d3d" d="M4456.709,1555.068c-1.984,0-3.615-1.589-3.662-3.578l-1.066-46.457       c-28.994-0.515-53.094-23.515-54.54-52.894c-1.505-30.64,22.162-58.297,52.839-58.297c58.3,0,56.789,47.066,58.295,77.698       c0.1,2.018-1.459,3.735-3.48,3.834c-2.067,0.164-3.741-1.459-3.838-3.477c-1.305-26.598-23.973-71.967-50.62-70.745       c-26.604,1.31-47.186,24.023-45.876,50.627c1.306,26.598,23.857,47.144,50.619,45.876c0.998-0.1,1.949,0.301,2.676,0.974       c0.723,0.672,1.142,1.609,1.166,2.597l1.152,50.089c0.045,2.025-1.557,3.698-3.578,3.75       C4456.768,1555.068,4456.737,1555.068,4456.709,1555.068z"/><path fill="#e0d9d4" d="M4312.215,1818.732l-97.38,77.54c-23.141,21.226,34.382,6.732,34.482,38.134l46.589,211.339       l33.28-166.839C4356.088,1876.728,4356.088,1876.728,4312.215,1818.732z"/><path fill="#eee8e5" d="M4311.926,1629.933l-97.38,69.22c-23.143,21.226-36.272,59.536-36.17,90.938l-41.532,782.564       h127.211l29.278-589.501l35.563-193.049C4364.967,1734.271,4355.799,1687.926,4311.926,1629.933z"/><path fill="#e0d9d4" d="M4259.166,1659.064l70.181-41.154l118.253,65.275       c51.377,48.751,121.022,206.825,187.365,345.131l-164.418-130.132v-100.02l-95.588-19.226L4259.166,1659.064z"/><polygon fill="#e0d9d4" points="4611.708 1617.665 4611.708 1982.239 4634.965 2028.315 4670.374 1884.879 4641.041 1823.112 4670.374 1724.562 4650.275 1629.933"/><polygon fill="#e0d9d4" points="4641.041 2404.212 4627.826 2404.212 4624.522 2014.172 4637.737 2014.172"/><circle cx="4573.3" cy="2105.263" r="27.306" fill="#e0d9d4"/><circle cx="4573.3" cy="2209.192" r="27.306" fill="#e0d9d4"/></g><g><rect width="73.064" height="43.826" x="4244.069" y="1402.289" fill="#eee8e5"/></g><g><rect width="73.065" height="43.826" x="4453.787" y="1402.289" fill="#eee8e5"/></g></g></g><g><rect width="439.922" height="645.83" x="4826.051" y="3466.885" fill="#eee8e5"/><path fill="#e0d9d4" d="M4826.052,4112.715h439.921v-645.83v0.001c-85.284,283.388-240.29,512.165-435.634,642.959      L4826.052,4112.715z"/><g><rect width="30.311" height="1512.648" x="5030.856" y="1950.535" fill="#888f5b"/><path fill="#abb572" d="M4824.385,1534.953c205.73,51.72,294.283,498.54,197.674,501.421      C4890.105,1939.234,4769.02,1830.58,4824.385,1534.953z"/><path fill="#888f5b" d="M5476.555,1862.865c5.02,212.075-402.002,416.582-430.543,324.24      C5104.443,2034.023,5176.869,1888.346,5476.555,1862.865z"/><path fill="#abb572" d="M5476.555,2209.883c5.02,212.075-402.002,416.582-430.543,324.24      C5104.443,2381.042,5176.869,2235.364,5476.555,2209.883z"/><path fill="#888f5b" d="M4706.225,2652.187c136.814-70.326,398.965,130.64,347.725,178.461      C4935.574,2840.915,4817.605,2839.707,4706.225,2652.187z"/><path fill="#abb572" d="M4800.332,3029.144c95.427-49.052,278.273,91.12,242.535,124.475      C4960.3,3160.779,4878.02,3159.938,4800.332,3029.144z"/><path fill="#888f5b" d="M5170.421,3084.613c49.052,95.428-91.12,278.273-124.476,242.535      C5038.784,3244.582,5039.627,3162.301,5170.421,3084.613z"/></g></g><g><polygon fill="#766969" points="5156.371 2701.086 5132.575 2696.074 5102.75 3227.471 5126.545 3232.481"/><path fill="#766969" d="M5106.838,3583.593l-23.796-5.014l-28.586,509.289c-0.686,12.21,3.869,23.185,10.173,24.512      l0.969,0.203c6.303,1.329,11.969-7.494,12.654-19.704L5106.838,3583.593z"/><path fill="#948888" d="M5089.877,3688.752l-1.938-0.408c-12.606-2.656-21.715-24.603-20.345-49.021l24.908-443.755      c1.369-24.42,12.701-42.062,25.307-39.408l1.94,0.409c12.605,2.655,21.715,24.602,20.343,49.021l-24.905,443.754      C5113.814,3673.764,5102.484,3691.407,5089.877,3688.752z"/><path fill="#948888" d="M5140.693,2783.409l-1.939-0.408c-12.606-2.655-21.715-24.604-20.344-49.023l31.445-579.659      c1.371-24.42,12.701-22.643,25.308-19.987l1.94,0.408c12.605,2.656,23.086,0.183,21.715,24.603L5166,2744.002      C5164.631,2768.419,5153.299,2786.063,5140.693,2783.409z"/><polygon fill="#766969" points="5413.477 2663.354 5391.848 2683.098 5521.137 3214.823 5542.763 3195.08"/><path fill="#766969" d="M5628.188,3546.407l-21.628,19.743l124.267,511.072c2.773,11.407,9.863,16.233,15.835,10.781l0,0      c5.972-5.451,8.565-19.117,5.792-30.523L5628.188,3546.407z"/><path fill="#948888" d="M5643.518,3663.807L5643.518,3663.807c-11.942,10.903-26.121,1.251-31.668-21.561      l-109.395-449.908c-5.547-22.811-0.359-50.143,11.584-61.046l0,0c11.945-10.903,26.124-1.251,31.671,21.561l109.394,449.908      C5660.65,3625.572,5655.463,3652.903,5643.518,3663.807z"/><path fill="#948888" d="M5423.25,2757.901L5423.25,2757.901c-11.943,10.903-26.121,1.251-31.669-21.561l-137.735-566.465      c-5.545-22.811-3.217-35.086,8.729-45.992l0,0c11.944-10.903,28.98-16.306,34.525,6.506l137.735,566.466      C5440.383,2719.666,5435.195,2746.998,5423.25,2757.901z"/><path fill="#766969" d="M5180.84,1959.154h23.434c26.15,0,47.35-21.199,47.35-47.35v-85.76H5133.49v85.76     C5133.49,1937.955,5154.689,1959.154,5180.84,1959.154z"/><g><rect width="121.621" height="82.126" x="5130.002" y="2025.711" fill="#766969"/></g><g><circle cx="5190.813" cy="1983.212" r="97.139" fill="#948888"/></g><g><path fill="#766969" d="M5182.527,1979.226l126.641,115.229c6.156,5.603,15.692,5.153,21.297-1.004l4.094-4.5      c5.603-6.159,5.153-15.693-1.004-21.297l-126.64-115.229c-6.157-5.604-15.694-5.155-21.298,1.004l-4.094,4.5      C5175.921,1964.085,5176.371,1973.621,5182.527,1979.226z"/><path fill="#948888" d="M5388.846,2130.381l-56.736-51.625c-4.16-3.785-10.601-3.481-14.386,0.679l0,0      c-3.785,4.16-3.481,10.601,0.679,14.386l56.736,51.625L5388.846,2130.381z"/><path fill="#766969" d="M5379.463,2162.431l72.449,65.923c8.239,7.498,19.461,8.583,25.064,2.423l8.092-8.893      c5.602-6.157,3.466-17.228-4.771-24.725l-72.451-65.921c-8.239-7.498-19.459-8.583-25.064-2.423l-8.092,8.891      C5369.087,2143.865,5371.223,2154.935,5379.463,2162.431z"/></g><g><path fill="#766969" d="M5138.264,1670.799h142.717l-16.751-41.097c-3.149-7.73-5.868-12.782-14.215-12.782h-94.093      c-9.753,0-17.658,7.906-17.658,17.659V1670.799z"/><path fill="#766969" d="M5250.015,1856.989h66.771c15.482,0,28.035-12.551,28.035-28.036v-130.119      c0-15.485-12.553-28.036-28.035-28.036h-66.771V1856.989z"/><path fill="#948888" d="M5082.112,1856.989h169.306c18.98,0,34.367-15.389,34.367-34.368v-117.454      c0-18.979-15.387-34.368-34.367-34.368h-174.986c-14.71,0-26.636,11.925-26.636,26.638v127.236      C5049.796,1842.52,5064.264,1856.989,5082.112,1856.989z"/><path fill="#948888" d="M5096.432,1670.799h153.583l-7.662-37.997c-1.863-9.239-9.98-15.883-19.406-15.883h-108.855      c-9.753,0-17.659,7.906-17.659,17.659V1670.799z"/><path fill="#766969" d="M5140.923,1832.58h-0.108c-31.274,0-56.628-25.353-56.628-56.627v-24.142       c0-31.275,25.354-56.628,56.628-56.628h0.108c37.941,0,68.698,30.757,68.698,68.699l0,0       C5209.621,1801.823,5178.864,1832.58,5140.923,1832.58z"/><path fill="#948888" d="M5111.079,1826.545h-51.651v-125.327h51.651c34.608,0,62.665,28.055,62.665,62.663l0,0       C5173.744,1798.49,5145.688,1826.545,5111.079,1826.545z"/><path fill="#766969" d="M5066.726,1835.428H4980.7v-143.093h86.025c39.515,0,71.547,32.032,71.547,71.546l0,0       C5138.272,1803.396,5106.24,1835.428,5066.726,1835.428z"/><path fill="#766969" d="M4934.269,1764.207c0-34.217,24.728-61.954,55.229-61.954v123.906        C4958.996,1826.159,4934.269,1798.422,4934.269,1764.207z"/><path fill="#766969" d="M5044.732,1764.207c0,34.215-24.729,61.952-55.234,61.952v-123.906        C5020.004,1702.253,5044.732,1729.99,5044.732,1764.207z"/><path fill="#5a4c4c" d="M5011.441,1799.547c16.979,0,30.74-15.968,30.74-35.666c0-19.696-13.762-35.664-30.74-35.664        V1799.547z"/><path fill="#5a4c4c" d="M5011.441,1799.547c-16.978,0-30.741-15.968-30.741-35.666        c0-19.696,13.764-35.664,30.741-35.664V1799.547z"/><path fill="#948888" d="M5022.928,1786.532c-9.39,0-17.002-10.141-17.002-22.651c0-12.508,7.612-22.65,17.002-22.65         V1786.532z"/><path fill="#948888" d="M5022.928,1786.532c9.391,0,17.003-10.141,17.003-22.651c0-12.508-7.612-22.65-17.003-22.65         V1786.532z"/><path fill="#948888" d="M4985.917,1692.335v15.637c-27.529,0-49.843,25.031-49.843,55.909s22.313,55.912,49.843,55.912        v15.635c-35.226,0-63.782-32.032-63.782-71.547C4922.135,1724.367,4950.691,1692.335,4985.917,1692.335z"/><path fill="#948888" d="M5035.762,1763.881c0-30.878-22.316-55.909-49.845-55.909v-15.637        c35.229,0,63.784,32.032,63.784,71.546c0,39.515-28.556,71.547-63.784,71.547v-15.635        C5013.445,1819.793,5035.762,1794.76,5035.762,1763.881z"/><ellipse cx="4989.499" cy="1747.343" fill="#fff" opacity=".15" rx="25.303" ry="25.282"/><ellipse cx="5005.925" cy="1772.625" fill="#fff" opacity=".15" rx="15.71" ry="15.698"/><g opacity=".15"><ellipse cx="5011.441" cy="1757.473" fill="#fff" rx="7.855" ry="7.849"/></g><g><polygon fill="#948888" points="5144.987 1462.693 5182.884 1462.693 5222.701 1616.919 5173.224 1616.919"/></g><g><path fill="#766969" d="M5182.884,1462.693L5182.884,1462.693c15.085,0,39.817,1.115,39.817,16.201l27.313,138.025      h-27.313L5182.884,1462.693z"/></g><g><path fill="#766969" d="M5202.791,1539.807h-171.333c-11.863,0-21.479-9.616-21.479-21.479v-34.156      c0-11.861,9.616-21.478,21.479-21.478h151.426L5202.791,1539.807z"/></g><g><path fill="#fff" d="M5034.936,1522.118h103.614c3.556,0,6.438-2.882,6.438-6.438v-28.862      c0-3.554-2.882-6.436-6.438-6.436h-103.614c-3.556,0-6.438,2.882-6.438,6.436v28.862      C5028.498,1519.236,5031.38,1522.118,5034.936,1522.118z"/></g></g><g><polygon fill="#766969" points="4990.951 2712.548 4969.106 2693.596 4846.496 3223.822 4868.34 3242.775"/><path fill="#766969" d="M4787.328,3593.111l-21.844-18.951l-117.719,509.07c-2.702,11.684-0.003,25.398,6.029,30.632l0,0      c6.032,5.235,13.113,0.005,15.815-11.68L4787.328,3593.111z"/><path fill="#948888" d="M4751.61,3690.861L4751.61,3690.861c-12.063-10.469-17.463-37.898-12.06-61.266l103.223-446.387      c5.404-23.369,19.565-33.829,31.631-23.361l0,0c12.063,10.469,17.463,37.898,12.059,61.266l-103.223,446.389      C4777.836,3690.869,4763.675,3701.329,4751.61,3690.861z"/><path fill="#948888" d="M4960.505,2787.509L4960.505,2787.509c-12.061-10.484-17.405-38.104-11.938-61.687      l131.604-567.781c5.467-23.583,19.674-34.204,31.733-23.719l0,0c12.06,10.485,27.515-3.588,22.048,19.996l-141.715,609.472      C4986.771,2787.373,4972.564,2797.993,4960.505,2787.509z"/></g><g><path fill="#766969" d="M5088.011,2154.318h191.39c12.836,0,23.24-10.407,23.24-23.241l0,0     c0-12.836-10.404-23.241-23.24-23.241h-191.39c-12.834,0-23.24,10.404-23.24,23.241l0,0     C5064.771,2143.912,5075.177,2154.318,5088.011,2154.318z"/></g></g><g><rect width="496.036" height="3292.254" x="1500.051" y="821.275" fill="#e0d9d4"/><rect width="29.514" height="3292.254" x="1470.538" y="821.275" fill="#c9c2be"/><rect width="407.267" height="3069.313" x="1546.781" y="865.144" fill="#fff"/><rect width="407.267" height="3069.313" x="1546.781" y="865.144" fill="#b0bfe2" opacity=".2"/><polygon fill="#fff" points="1548.278 3135.219 1947.861 2481.643 1947.861 2294.271 1548.278 2947.848"/><polygon fill="#fff" points="1548.278 1916.646 1947.861 1263.069 1947.861 1060.106 1548.278 1713.682"/><polygon fill="#fff" points="1548.278 2884.512 1947.861 2230.936 1947.861 2184.092 1548.278 2837.669"/><polygon fill="#fff" points="1548.278 1477.214 1922.611 864.938 1893.972 864.938 1548.278 1430.371"/><polygon fill="#fff" points="1548.278 2341.611 1947.861 1688.035 1947.861 1594.349 1548.278 2247.925"/><polygon fill="#fff" points="1548.278 3585.702 1947.861 2932.126 1947.861 2838.44 1548.278 3492.017"/></g><g><rect width="29.115" height="165.158" x="1593.673" y="3757.596" fill="#bbd67a" transform="rotate(18.702 1608.253 3839.5)"/><rect width="29.115" height="165.158" x="1479.47" y="3757.596" fill="#809753" transform="rotate(9.39 1494.203 3841.371)"/><rect width="29.115" height="165.158" x="1337.579" y="3710.278" fill="#809753" transform="rotate(-30 1351.953 3792.892)"/><rect width="29.115" height="165.157" x="1410.337" y="3718.426" fill="#bbd67a" transform="rotate(-14.783 1424.966 3800.758)"/><path fill="#809753" d="M1026.064,3587.257c60.735-39.536,156.315-29.847,276.415,14.478     c62.395,23.029,67.432,111.158,6.907,138.732c-56.422,25.705-140.591,23.831-265.546-18.582     C984.25,3701.657,973.324,3621.588,1026.064,3587.257z"/><path fill="#bbd67a" d="M971.903,3452.675c115.82-105.394,312.215-36.084,558.425,141.238     c41.693,30.027,40.852,93.827-2.777,120.966c-104.736,65.149-270.155,40.922-546.733-147.027     C941.536,3541.157,936.776,3484.64,971.903,3452.675z"/><path fill="#809753" d="M1768.829,3353.803c-88.294,26.147-200.129,131.738-328.388,292.764     c-44.651,56.059,14.542,136.041,80.677,108.428c78.862-32.926,181.824-120.939,319.909-289.24     C1884.226,3413.103,1834.13,3334.463,1768.829,3353.803z"/><path fill="#bbd67a" d="M1797.685,3563.21c-57.371,10.489-127.662,46.384-207.98,102.003     c-72.692,50.336-13.199,155.065,75.226,132.704c52.385-13.249,117.627-44.729,199.176-99.34     C1935.399,3650.834,1884.954,3547.255,1797.685,3563.21z"/><path fill="#d5ed8f" d="M1397.513,3163.998c100.658,76.825,163.427,268.477,200.439,538.195     c11.886,86.619-92.637,138.938-154.557,77.211c-80.344-80.092-146.605-241.899-191.313-528.766     C1239.396,3169.245,1332.031,3114.02,1397.513,3163.998z"/><circle cx="1544.836" cy="3404.611" r="54.049" fill="#ecb498"/><circle cx="1352.136" cy="3607.921" r="54.049" fill="#ecb498"/><circle cx="1741.483" cy="3562.4" r="43.257" fill="#ecb498"/><circle cx="1268.689" cy="3256.025" r="36.264" fill="#ecb498"/><circle cx="1129.199" cy="3659.852" r="27.024" fill="#ecb498"/><rect width="29.116" height="165.158" x="1528.015" y="3760.625" fill="#d5ed8f"/><polygon fill="#eee8e5" points="1612.297 4140.343 1369.274 4140.343 1283.345 3840.873 1698.226 3840.873"/><path fill="#e0d9d4" d="M1612.296,4140.343h-243.021l-85.929-299.47l0,0     C1376.864,3988.205,1483.709,4096.284,1612.296,4140.343z"/></g></svg>